<?xml version="1.0" standalone="no"?>
<!DOCTYPE svg PUBLIC "-//W3C//DTD SVG 20010904//EN"
 "http://www.w3.org/TR/2001/REC-SVG-20010904/DTD/svg10.dtd">
<svg version="1.0" xmlns="http://www.w3.org/2000/svg"
 width="512.000000pt" height="512.000000pt" viewBox="0 0 512.000000 512.000000"
 preserveAspectRatio="xMidYMid meet">

<g transform="translate(0.000000,512.000000) scale(0.100000,-0.100000)"
fill="#000000" stroke="none">
<path d="M2418 4474 c-84 -20 -123 -43 -250 -145 -176 -142 -201 -150 -428
-130 -167 15 -290 -23 -386 -119 -70 -70 -96 -123 -144 -289 -58 -203 -69
-217 -260 -337 -169 -106 -246 -206 -269 -351 -14 -87 -1 -157 55 -308 68
-181 67 -219 -5 -415 -79 -214 -80 -321 -4 -461 33 -62 73 -99 223 -211 69
-52 137 -112 153 -135 22 -31 39 -82 68 -203 22 -89 51 -184 65 -212 37 -74
121 -153 201 -191 l68 -32 230 -6 c275 -7 268 -4 435 -139 130 -106 185 -134
286 -150 57 -9 85 -8 143 4 95 20 145 48 289 165 156 127 177 136 312 130 58
-2 152 -4 210 -4 100 0 109 2 180 36 83 40 159 110 197 181 13 24 34 79 48
123 13 44 35 120 50 168 32 109 58 139 216 253 65 46 134 103 154 126 73 86
112 205 102 318 -5 65 -21 114 -91 280 -53 126 -50 169 20 340 87 213 94 317
30 452 -40 84 -94 138 -229 229 -136 91 -181 130 -204 174 -9 17 -40 101 -69
188 -62 186 -83 224 -158 295 -105 99 -208 127 -413 111 -199 -16 -219 -10
-383 125 -116 96 -176 129 -264 145 -75 14 -106 13 -178 -5z m219 -173 c23
-11 82 -54 130 -94 117 -96 137 -110 208 -137 54 -21 73 -23 190 -20 252 7
265 6 321 -23 87 -45 116 -89 175 -266 90 -270 109 -296 323 -440 138 -94 161
-117 196 -193 36 -79 28 -138 -41 -309 -92 -229 -92 -288 3 -511 42 -100 53
-136 56 -193 3 -64 1 -76 -30 -135 -31 -60 -43 -71 -168 -162 -201 -145 -223
-177 -290 -407 -23 -80 -50 -161 -60 -180 -26 -50 -76 -96 -134 -122 -46 -20
-57 -21 -240 -14 -267 10 -282 4 -523 -191 -194 -157 -281 -155 -488 12 -66
53 -149 111 -185 128 l-65 31 -230 5 c-258 6 -287 13 -358 84 -52 52 -63 77
-102 243 -58 243 -92 293 -313 452 -145 104 -181 157 -182 272 0 44 13 93 55
214 84 238 83 283 -3 509 -38 99 -46 133 -46 186 0 123 44 184 214 290 125 78
207 152 242 217 15 26 42 107 62 178 20 72 43 144 50 161 34 75 121 141 206
158 19 4 94 1 167 -5 221 -20 285 2 483 161 79 64 142 106 170 115 60 20 154
13 207 -14z"/>
<path d="M1941 3550 c-94 -34 -167 -102 -214 -200 -29 -58 -32 -74 -32 -156 0
-84 2 -95 38 -166 57 -116 148 -184 280 -209 115 -21 259 30 339 120 182 205
93 539 -165 616 -70 21 -180 19 -246 -5z m184 -141 c54 -14 119 -68 146 -122
30 -58 24 -159 -14 -215 -73 -111 -231 -132 -329 -44 -138 125 -84 339 97 383
44 10 52 10 100 -2z"/>
<path d="M2443 2607 c-788 -787 -813 -813 -813 -850 0 -49 28 -77 78 -77 36
-1 58 20 850 816 737 741 812 819 812 848 0 43 -35 76 -81 76 -32 0 -86 -52
-846 -813z"/>
<path d="M2922 2299 c-121 -23 -214 -95 -269 -207 -36 -71 -38 -82 -38 -166 0
-81 3 -98 31 -156 63 -131 177 -210 316 -218 98 -6 163 10 238 58 236 154 222
516 -27 647 -57 30 -143 54 -186 52 -12 -1 -41 -5 -65 -10z m184 -184 c66 -39
98 -93 102 -175 5 -81 -16 -130 -79 -183 -140 -121 -360 -16 -359 170 1 88 64
178 146 209 55 20 135 11 190 -21z"/>
</g>
</svg>
