<?xml version="1.0" standalone="no"?>
<!DOCTYPE svg PUBLIC "-//W3C//DTD SVG 20010904//EN"
 "http://www.w3.org/TR/2001/REC-SVG-20010904/DTD/svg10.dtd">
<svg version="1.0" xmlns="http://www.w3.org/2000/svg"
 width="512.000000pt" height="512.000000pt" viewBox="0 0 512.000000 512.000000"
 preserveAspectRatio="xMidYMid meet">

<g transform="translate(0.000000,512.000000) scale(0.100000,-0.100000)"
fill="#000000" stroke="none">
<path d="M660 5109 c-30 -12 -585 -563 -606 -601 -58 -109 53 -241 174 -208
30 8 94 67 323 297 158 159 292 298 298 310 6 12 11 42 11 66 0 102 -105 173
-200 136z"/>
<path d="M3472 5103 c-61 -30 -91 -96 -77 -170 6 -33 45 -77 293 -325 317
-319 335 -332 414 -309 82 25 129 106 107 186 -9 33 -59 88 -288 318 -152 153
-293 287 -313 298 -45 23 -92 24 -136 2z"/>
<path d="M1185 4906 c-41 -18 -83 -69 -91 -111 -13 -73 2 -93 305 -397 248
-248 292 -288 329 -298 111 -29 211 68 187 182 -6 26 -68 94 -293 320 -157
158 -300 294 -318 303 -39 18 -79 19 -119 1z"/>
<path d="M2770 4609 c-30 -12 -585 -563 -606 -601 -8 -15 -14 -47 -14 -71 0
-60 32 -106 92 -131 88 -36 95 -32 416 287 156 155 290 294 298 309 8 15 14
47 14 71 0 102 -105 173 -200 136z"/>
<path d="M4632 4481 c-18 -12 -41 -35 -52 -53 -19 -32 -20 -51 -20 -448 0
-397 1 -416 20 -448 57 -94 195 -96 252 -3 23 36 23 41 26 428 2 246 -1 407
-7 431 -6 21 -26 53 -45 72 -46 43 -122 53 -174 21z"/>
<path d="M1185 4116 c-16 -8 -162 -146 -322 -308 l-293 -294 0 -52 c0 -85 42
-140 117 -157 71 -15 92 2 392 299 156 155 289 295 297 313 31 72 5 152 -62
190 -44 26 -85 28 -129 9z"/>
<path d="M3750 4119 c-31 -12 -586 -563 -606 -601 -20 -39 -18 -107 6 -146 28
-46 97 -76 153 -67 39 7 66 31 330 294 159 157 295 298 303 313 31 59 9 149
-46 188 -36 26 -103 35 -140 19z"/>
<path d="M1770 3683 c-64 -24 -108 -102 -95 -170 6 -33 44 -76 293 -326 158
-159 299 -295 314 -303 83 -44 197 10 214 101 14 76 8 84 -295 388 -157 159
-298 295 -313 303 -27 14 -89 18 -118 7z"/>
<path d="M112 3280 c-62 -38 -88 -116 -61 -187 12 -32 550 -577 591 -599 39
-20 117 -18 152 5 73 48 90 146 37 217 -49 66 -554 562 -584 573 -44 17 -99
13 -135 -9z"/>
<path d="M4343 3220 c-57 -25 -83 -69 -83 -140 l0 -54 298 -298 c315 -317 330
-328 406 -314 48 9 102 62 111 109 17 88 16 90 -288 396 -332 333 -349 345
-444 301z"/>
<path d="M3273 3050 c-59 -36 -86 -106 -64 -172 15 -45 584 -614 624 -624 78
-19 155 20 182 91 35 89 35 88 -283 408 -158 159 -299 295 -314 303 -38 20
-107 18 -145 -6z"/>
<path d="M1616 2861 c-16 -10 -38 -34 -50 -53 -20 -32 -21 -43 -21 -450 0
-407 0 -417 21 -445 71 -96 195 -97 254 -1 20 32 20 48 18 460 l-3 428 -37 37
c-33 32 -44 37 -95 40 -45 3 -64 0 -87 -16z"/>
<path d="M2755 2759 c-31 -17 -575 -561 -591 -591 -8 -15 -14 -46 -14 -70 0
-110 114 -180 214 -133 42 20 582 562 595 598 26 69 2 152 -54 187 -36 22
-116 27 -150 9z"/>
<path d="M955 2319 c-31 -17 -585 -571 -601 -601 -31 -60 -6 -144 55 -185 40
-27 108 -31 149 -9 15 8 154 142 309 298 299 301 310 316 294 391 -11 48 -37
83 -76 101 -38 18 -101 20 -130 5z"/>
<path d="M3145 2114 c-34 -17 -531 -508 -576 -568 -53 -71 -36 -169 37 -217
35 -23 113 -25 152 -5 41 22 579 567 591 599 49 130 -83 254 -204 191z"/>
<path d="M4345 2091 c-26 -12 -139 -118 -322 -302 -304 -306 -305 -308 -288
-396 9 -47 63 -100 111 -109 76 -14 91 -3 407 314 l297 298 0 54 c0 71 -26
115 -83 140 -52 24 -72 24 -122 1z"/>
<path d="M1358 1409 c-43 -22 -78 -81 -78 -129 0 -17 9 -47 19 -68 30 -56 557
-578 605 -597 112 -47 231 62 196 180 -10 33 -62 90 -288 318 -153 153 -294
287 -314 298 -47 24 -93 24 -140 -2z"/>
<path d="M4335 1371 c-16 -10 -38 -28 -49 -39 -21 -24 -32 -96 -22 -139 8 -31
551 -584 598 -609 15 -8 49 -14 77 -14 55 0 99 28 126 81 18 33 19 92 4 122
-16 31 -568 585 -601 603 -37 19 -97 18 -133 -5z"/>
<path d="M3513 1110 c-25 -11 -51 -33 -63 -52 -24 -39 -26 -107 -6 -146 8 -15
144 -156 303 -314 248 -247 293 -287 325 -293 97 -18 178 49 178 145 0 23 -6
53 -14 68 -22 41 -577 590 -609 602 -40 14 -66 12 -114 -10z"/>
<path d="M747 1035 c-21 -7 -48 -21 -59 -32 -46 -41 -48 -58 -48 -483 0 -374
1 -403 19 -438 22 -43 84 -82 130 -82 51 0 108 35 131 80 19 37 20 58 20 440
0 429 -1 442 -51 486 -21 19 -38 27 -89 39 -8 2 -32 -2 -53 -10z"/>
<path d="M3025 1040 c-16 -4 -39 -11 -50 -18 -11 -6 -147 -138 -302 -294 -186
-187 -284 -292 -289 -311 -11 -48 2 -116 27 -144 50 -52 121 -68 177 -39 33
18 585 572 601 603 6 12 11 38 11 58 0 92 -87 164 -175 145z"/>
</g>
</svg>
