<?xml version="1.0" encoding="iso-8859-1"?>
<!-- Generator: Adobe Illustrator 19.0.0, SVG Export Plug-In . SVG Version: 6.00 Build 0)  -->
<!-- License: CC0. Made by SVG Repo: https://www.svgrepo.com/svg/220003/syrup -->
<svg version="1.1" id="Layer_1" xmlns="http://www.w3.org/2000/svg" xmlns:xlink="http://www.w3.org/1999/xlink" x="0px" y="0px"
	 viewBox="0 0 512.001 512.001" style="enable-background:new 0 0 512.001 512.001;" xml:space="preserve">
<g>
	<g>
		<path d="M404.58,278.606l-78.195-146.123V99.279h8.472c8.721,0,15.792-7.071,15.792-15.792s-7.071-15.792-15.792-15.792h-8.472
			V15.792C326.385,7.071,319.314,0,310.593,0H201.408c-8.721,0-15.792,7.071-15.792,15.792v51.903h-8.472
			c-8.721,0-15.792,7.071-15.792,15.792s7.071,15.792,15.792,15.792h8.472v33.215l-78.237,146.699
			c-6.252,11.723-8.778,24.896-7.306,38.096l20.13,180.669c0.892,7.996,7.651,14.043,15.695,14.043h240.208
			c8.048,0,14.807-6.05,15.695-14.049l20.132-181.19C413.401,303.537,410.86,290.341,404.58,278.606z M217.2,31.584h77.601v36.111
			H217.2V31.584z M380.54,313.275l-18.571,167.142H150.026L131.46,313.79c-0.762-6.837,0.547-13.661,3.786-19.734l80.095-150.182
			c1.219-2.287,1.858-4.84,1.858-7.432V99.279h77.601v37.163c0,2.599,0.641,5.159,1.868,7.451l80.064,149.614
			C379.985,299.587,381.302,306.422,380.54,313.275z"/>
	</g>
</g>
<g>
	<g>
		<path d="M258.228,253.31h-4.456c-41.831,0-75.865,34.033-75.865,75.865v92.787c0,8.721,7.071,15.792,15.792,15.792h124.603
			c8.721,0,15.792-7.071,15.792-15.792v-92.787C334.094,287.344,300.061,253.31,258.228,253.31z M302.509,406.17h-93.018v-76.995
			c0-24.416,19.864-44.281,44.281-44.281h4.456c24.416,0,44.281,19.864,44.281,44.281V406.17z"/>
	</g>
</g>
</svg>
