<?xml version="1.0" encoding="iso-8859-1"?>
<!-- Generator: Adobe Illustrator 18.0.0, SVG Export Plug-In . SVG Version: 6.00 Build 0)  -->
<!DOCTYPE svg PUBLIC "-//W3C//DTD SVG 1.1//EN" "http://www.w3.org/Graphics/SVG/1.1/DTD/svg11.dtd">
<svg version="1.1" id="Capa_1" xmlns="http://www.w3.org/2000/svg" xmlns:xlink="http://www.w3.org/1999/xlink" x="0px" y="0px"
	 viewBox="0 0 297 297" style="enable-background:new 0 0 297 297;" xml:space="preserve">
<path d="M180.517,10.458C180.517,4.684,175.834,0,170.059,0c-5.775,0-10.457,4.684-10.457,10.458v0.96H135.55
	c-5.775,0-10.458,4.603-10.458,10.378c-0.06,3.826-1.506,22.912-24.053,22.912h-24.9c0.552-2.176,0.847-4.453,0.847-6.798
	c0-15.281-12.432-27.713-27.713-27.713c-15.281,0-27.713,12.432-27.713,27.713c0,15.268,12.411,27.689,27.674,27.711
	c0.014,0,0.026,0.003,0.04,0.003h51.766c26.868,0,39.799-17.351,43.672-33.29h14.891v26.654
	c-23.839,3.113-44.861,16.77-57.43,37.484H92.41c-3.624,0-6.99,1.877-8.896,4.961c-1.905,3.083-2.078,6.932-0.457,10.174
	l15.76,31.519L82.327,248.814l-16.525,33.05c-1.621,3.243-1.448,7.092,0.457,10.175c1.906,3.083,5.271,4.961,8.896,4.961h189.808
	c0.007,0,0.015,0,0.021,0c5.775,0,10.457-4.684,10.457-10.458c0-1.915-0.514-3.71-1.412-5.253l-16.239-32.479L241.3,143.133
	l15.762-31.525c1.62-3.242,1.446-7.092-0.458-10.176c-1.905-3.082-5.271-4.959-8.896-4.959h-9.761
	c-12.568-20.714-33.592-34.371-57.43-37.484V10.458z M49.273,31.112c3.748,0,6.797,3.05,6.797,6.798
	c0,3.748-3.049,6.797-6.797,6.797c-3.748,0-6.798-3.049-6.798-6.797C42.475,34.162,45.524,31.112,49.273,31.112z M230.787,117.389
	l-6.798,13.595H116.13l-6.798-13.595H230.787z M118.617,151.898h102.882l13.992,89.676H104.627L118.617,151.898z M170.059,79.218
	c15.945,0,30.745,6.343,41.546,17.255h-83.092C139.314,85.561,154.114,79.218,170.059,79.218z M92.076,276.084l6.799-13.595h142.37
	l6.797,13.595H92.076z"/>
<g>
</g>
<g>
</g>
<g>
</g>
<g>
</g>
<g>
</g>
<g>
</g>
<g>
</g>
<g>
</g>
<g>
</g>
<g>
</g>
<g>
</g>
<g>
</g>
<g>
</g>
<g>
</g>
<g>
</g>
</svg>
